<svg xmlns="http://www.w3.org/2000/svg" viewBox="0 0 427.71 111.07"><defs><style>.cls-1{fill:#fff;}</style></defs><title>SS_Logo_White</title><g id="Layer_2" data-name="Layer 2"><g id="Layer_1-2" data-name="Layer 1"><path class="cls-1" d="M21.61,111.07a55.69,55.69,0,0,1,2-9.65,11.66,11.66,0,0,1,8.29-7.68A37.81,37.81,0,0,0,50,82.71a31.07,31.07,0,0,0,8.5-19.47c.09-1.45.3-2.9.35-4.35,0-1.14.72-1.34,1.65-1.34l15.22.1V60.7c-.22,1.75-.41,3.51-.66,5.26-1.24,8.87-4,17.16-9.55,24.32-6.55,8.52-15.23,14-25.32,17.41a101.53,101.53,0,0,1-14.77,3.38Z"/><path class="cls-1" d="M22.38,72.22c0-4.51,0-9,0-13.53A30.7,30.7,0,0,1,49.85,27.83c.44,0,.87-.15,1.31-.23,1.45-.26,2.09.28,2.09,1.83,0,10.16.23,20.33-.09,30.48A30.62,30.62,0,0,1,25.84,89.36l-.56.08c-2.77.43-2.9.33-2.9-2.55Z"/><path class="cls-1" d="M8.43,59.64c-2.29,0-4.57,0-6.85,0C.27,59.66,0,59.21,0,57.81A57.73,57.73,0,0,1,3.11,40.07C8.36,25.15,19,15.67,33.54,10.21a88.5,88.5,0,0,1,16.58-4c.31-.05.63-.09.94-.12,2.87-.23,3-.05,2.51,2.8a35.66,35.66,0,0,1-1.71,6.82A11.72,11.72,0,0,1,44,23.27a39.41,39.41,0,0,0-20.9,14.18,29.26,29.26,0,0,0-6,19c.11,3.15,0,3.16-3.09,3.16Z"/><path class="cls-1" d="M347.76,37.77c1.74-4.24,3.35-8.13,4.95-12,.84-2.06,1.65-4.12,2.48-6.18a7.4,7.4,0,0,1,7.18-5c1.75,0,3.51,0,5.26,0,2.08,0,2.22.27,1.43,2.27s-1.57,4-2.41,6a4.14,4.14,0,0,0,0,3.49c1.53,3.57,3,7.19,4.43,10.75.8.06.79-.53,1-.92q3.16-7.75,6.3-15.52c1.91-4.73,3.91-6.07,9.09-6.07,8.84,0,17.69.19,26.53,0,6.86-.17,11.56,4.18,12.88,10.47a41.75,41.75,0,0,1,.87,9c0,5.18,0,10.36,0,15.53,0,3,0,3-3.09,3-1.35,0-2.7,0-4.05,0-1.57.08-2.74-.21-3.2-2-.4-1.54-1.24-.5-1.75-.06C410.25,55,401,52.7,397.1,48.6c-4.43-4.67-4.6-15,3.36-18.41a27.11,27.11,0,0,1,13.65-2c1.41.16,1.53-.23,1.25-1.35a4.25,4.25,0,0,0-4-3.33c-5.47,0-10.94-.09-16.41,0-3.64.08-5.91,2.11-7.23,5.47-2.8,7.14-5.78,14.2-8.59,21.34a3,3,0,0,1-3.3,2.25c-2.83-.12-5.68-.15-8.5,0-2,.11-3.05-.57-3.65-2.55-1.11-3.72-2.49-7.37-3.84-11.29a6.61,6.61,0,0,0-1.41,2.78c-1.12,3.1-2.23,6.2-3.26,9.33a2.16,2.16,0,0,1-2.36,1.71c-3.38-.05-6.76,0-10.13,0A2.2,2.2,0,0,1,340.34,51q-7-17.4-14.16-34.75c-.48-1.17-.2-1.64,1-1.64a68.55,68.55,0,0,1,6.88.08c3.34.37,5.4,2.48,6.61,5.53,2,5,4,10,6,15Zm67.83,1.42c0-3.1-.08-3.39-1.2-3.51-2.5-.25-5-.24-7.27,1.1a3.26,3.26,0,0,0-1.55,4.13A3,3,0,0,0,409,43.16a28.79,28.79,0,0,0,4-.72C414.88,42,416.32,41.23,415.59,39.19Z"/><path class="cls-1" d="M109.36,17.25A15.44,15.44,0,0,1,122,14.08a7.45,7.45,0,0,1,4.76,2.46c.93,1.11,1.7,1,2.92.32,4.31-2.28,8.91-3.53,13.84-2.78,5.21.79,8.37,4.06,10.17,8.78A19.92,19.92,0,0,1,155,30c0,6.85-.06,13.71,0,20.56,0,1.91-.71,2.49-2.5,2.42-2.49-.08-5-.07-7.49,0-1.75.05-2.38-.68-2.36-2.4.06-6,0-12.1,0-18.15,0-.34,0-.67,0-1,.06-5.35-2.27-6.77-7.62-4.22A3.72,3.72,0,0,0,133,30.94c.05,6.32,0,12.64,0,19,0,2.82-.21,3-2.95,3-2.37,0-4.73-.06-7.09,0-1.67.05-2.23-.64-2.22-2.28.07-5.91,0-11.83,0-17.74,0-.34,0-.68,0-1-.23-6.09-2.5-7.21-8.09-4.53a3.37,3.37,0,0,0-1.88,3.48c0,6.45,0,12.9,0,19.35,0,2.48-.2,2.68-2.61,2.71s-5,0-7.49,0c-1.38,0-2.15-.46-2.15-2q0-17.34,0-34.68c0-1.32.5-2,1.89-2,2.09,0,4.19,0,6.28,0S108.86,15.76,109.36,17.25Z"/><path class="cls-1" d="M205,17.55c2.26-2.82,4.79-3.09,7.53-3.05,3.16.05,6.33-.2,9.5-.25,1.31,0,1.81-.58,1.78-1.85a26.84,26.84,0,0,1,.06-4.83c.55-3.54,1.55-6.7,6.54-6.37C236,1.58,236,1.29,236,7c0,1.88,0,3.77,0,5.65,0,1.09.51,1.59,1.6,1.59,1.82,0,3.65,0,5.47,0,1.35,0,2,.51,1.93,1.91-.06,2.62-.06,5.25,0,7.87,0,1.39-.57,1.94-1.92,1.92-1.76,0-3.52,0-5.27,0-1.28,0-1.84.51-1.82,1.8,0,3.7,0,7.39,0,11.09,0,1.67.76,2.49,2.48,2.41,3.76-.19,6,2,7.66,5a1.73,1.73,0,0,1-.14,2.21c-2.89,3.41-10.51,5.62-14.7,4.21A10.91,10.91,0,0,1,223.78,42q-.1-7,0-13.91c0-1.69-.6-2.26-2.25-2.21-3,.09-5.94,0-8.91.05a8.16,8.16,0,0,0-3.69.95,4,4,0,0,0-2.49,4c.09,6.45,0,12.91,0,19.36,0,2.46-.21,2.66-2.64,2.69s-4.86,0-7.29,0c-1.58,0-2.35-.51-2.34-2.21q.06-17.13,0-34.28c0-1.7.75-2.27,2.34-2.21s3.11.08,4.66,0C203.24,14.1,204.68,14.69,205,17.55Z"/><path class="cls-1" d="M78.4,0c6.28.21,10.82,3.62,14.81,8,.48.53.76,1.22.09,1.79-1.59,1.35-3,2.92-5,3.77a8,8,0,0,1-6.67-.37A7.17,7.17,0,0,0,76,12.67c-1.14.43-2,1-2.09,2.4a2.34,2.34,0,0,0,1.77,2.42c2.35.84,4.73,1.6,7.1,2.39a23.48,23.48,0,0,1,8.5,4.55,15.56,15.56,0,0,1,.11,23.39,20.37,20.37,0,0,1-31.54-4.75c-1.42-2.45-1.24-2.72,1.11-4.28,3.94-2.61,7.67-2.46,11.41.36a8.24,8.24,0,0,0,8.25,1.08A6.17,6.17,0,0,0,83.66,38a2.94,2.94,0,0,0-.56-4.29A11.4,11.4,0,0,0,79.46,32a59.6,59.6,0,0,1-10.94-4.74c-5.42-3.3-7.67-8.2-6.83-14.38.82-6,4.59-9.69,10.13-11.75A17.9,17.9,0,0,1,78.4,0Z"/><path class="cls-1" d="M266.18,53c-7.71-.45-13.58-3.85-17.32-10.73-.74-1.35-.45-2,.83-2.91,4-2.69,7.73-2.86,11.81-.07s7.16,2.49,10.5,0c2.52-1.88,2.37-5-.47-6.32s-5.78-2.24-8.64-3.45-5.59-2.38-7.81-4.55a13.94,13.94,0,0,1,1.74-21.33c7.22-5,15.84-4.56,22.3,1.39,1.36,1.25,4.17,2.52,3.32,4.28a8.8,8.8,0,0,1-6.63,4.48,8.49,8.49,0,0,1-5.11-.91,7.73,7.73,0,0,0-4.94-.55c-1.37.27-2.67.85-2.86,2.45s.84,2.53,2.19,3c3.1,1.13,6.3,2,9.36,3.25,5.82,2.36,10.07,6.16,11,12.78,1.2,8.43-4.18,14.67-10.38,17.36A22,22,0,0,1,266.18,53Z"/><path class="cls-1" d="M312.71,37.65c-2.9,0-5.8,0-8.7,0-.59,0-1.33-.15-1.64.51s.22,1.29.66,1.78a6.41,6.41,0,0,0,6.5,2.34,26.27,26.27,0,0,0,3.65-1.17c4.79-1.82,7.62.24,10.64,3.55.83.91.16,1.57-.47,2.23-6,6.43-17,8-24.63,3.53a19.68,19.68,0,0,1-9.54-20.25c1.11-7.34,7.31-13.86,14.87-15.64,9.7-2.29,20.39,3.77,23.14,13.33,1.76,6.09-.81,10-7.19,9.79C317.57,37.58,315.14,37.65,312.71,37.65Zm-4.26-8.13c1.81,0,3.62,0,5.44,0,1.31,0,1.51-.56.81-1.63a7.47,7.47,0,0,0-12.32,0c-.68,1.06-.51,1.62.83,1.62Z"/><path class="cls-1" d="M191.77,40c0,4.5,0,7.59,0,10.69,0,1.62-.7,2.31-2.33,2.26-2-.07-3.92,0-5.88,0a1.91,1.91,0,0,1-2.15-1.45c-.38-1.72-1.06-1.34-2.17-.56-7.82,5.44-19.38,1.08-21.3-8a11.23,11.23,0,0,1,7.19-13.33,29.59,29.59,0,0,1,12.34-1.7c1.74.07,2-.35,1.23-1.94A3.88,3.88,0,0,0,174,23.74a17.45,17.45,0,0,0-2.45,1,9.58,9.58,0,0,1-10.23-2.24c-.81-.89-.18-1.47.26-2.12a14.75,14.75,0,0,1,11-6.35c5.38-.6,10.61-.15,14.68,4,2.88,3,3.72,6.77,4.14,10.71A107,107,0,0,1,191.77,40Zm-12.22-.94c0-3-.55-3.54-3.34-3.25A11.93,11.93,0,0,0,171,37.1c-1.19.73-2,1.65-1.63,3.12a3.1,3.1,0,0,0,2.92,2.62,14.06,14.06,0,0,0,4.77-.68C178.81,41.68,180,40.86,179.55,39.05Z"/></g></g></svg>