<svg xmlns="http://www.w3.org/2000/svg" viewBox="0 0 75.73 105.07"><defs><style>.cls-1{fill:#fff;}</style></defs><title>Asset 3</title><g id="Layer_2" data-name="Layer 2"><g id="Layer_1-2" data-name="Layer 1"><path class="cls-1" d="M21.61,105.07a55.69,55.69,0,0,1,2-9.65,11.66,11.66,0,0,1,8.29-7.68A37.81,37.81,0,0,0,50,76.71a31.07,31.07,0,0,0,8.5-19.47c.09-1.45.3-2.9.35-4.35,0-1.14.72-1.34,1.65-1.34l15.22.1V54.7c-.22,1.75-.41,3.51-.66,5.26-1.24,8.87-4,17.16-9.55,24.32C59,92.8,50.29,98.28,40.2,101.69a101.53,101.53,0,0,1-14.77,3.38Z"/><path class="cls-1" d="M22.38,66.22c0-4.51,0-9,0-13.53A30.7,30.7,0,0,1,49.85,21.83c.44,0,.87-.15,1.31-.23,1.45-.26,2.09.28,2.09,1.83,0,10.16.23,20.33-.09,30.48A30.62,30.62,0,0,1,25.84,83.36l-.56.08c-2.77.43-2.9.33-2.9-2.55Z"/><path class="cls-1" d="M8.43,53.64c-2.29,0-4.57,0-6.85,0C.27,53.66,0,53.21,0,51.81A57.73,57.73,0,0,1,3.11,34.07C8.36,19.15,19,9.67,33.54,4.21a88.5,88.5,0,0,1,16.58-4c.31,0,.63-.09.94-.12,2.87-.23,3,0,2.51,2.8a35.66,35.66,0,0,1-1.71,6.82A11.72,11.72,0,0,1,44,17.27a39.41,39.41,0,0,0-20.9,14.18,29.26,29.26,0,0,0-6,19c.11,3.15,0,3.16-3.09,3.16Z"/></g></g></svg>